screens;
 
http://baypic.net/img-5197783892400.html
 
http://baypic.net/img-519778445a497.html

Format : MPEG-4
Format profile : Base Media
Codec ID : isom
File size : 1.27 GiB
Duration : 2h 54mn
Overall bit rate mode : Variable
Overall bit rate : 1 048 Kbps
Encoded date : UTC 2013-05-18 04:54:19
Tagged date : UTC 2013-05-18 04:54:19

Video
ID : 1
Format : AVC
Format/Info : Advanced Video Codec
Format profile : High@L3.1
Format settings, CABAC : Yes
Format settings, ReFrames : 5 frames
Codec ID : avc1
Codec ID/Info : Advanced Video Coding
Duration : 2h 53mn
Bit rate : 947 Kbps
Maximum bit rate : 7 663 Kbps
Width : 672 pixels
Height : 374 pixels
Display aspect ratio : 16:9
Frame rate mode : Constant
Frame rate : 29.970 fps
Color space : YUV
Chroma subsampling : 4:2:0
Bit depth : 8 bits
Scan type : Progressive
Bits/(Pixel*Frame) : 0.126
Stream size : 1.15 GiB (90%)
Encoded date : UTC 2013-05-18 04:09:27
Tagged date : UTC 2013-05-18 04:55:56

Audio
ID : 2
Format : AAC
Format/Info : Advanced Audio Codec
Format profile : LC
Codec ID : 40
Duration : 2h 54mn
Bit rate mode : Variable
Bit rate : 96.0 Kbps
Maximum bit rate : 109 Kbps
Channel(s) : 2 channels
Channel positions : Front: L R
Sampling rate : 48.0 KHz
Compression mode : Lossy
Delay relative to video : 67ms
Stream size : 119 MiB (9%)
Language : English
Encoded date : UTC 2013-05-17 12:09:00
Tagged date : UTC 2013-05-18 04:55:56


